<?xml version="1.0" standalone="no"?><!DOCTYPE svg PUBLIC "-//W3C//DTD SVG 1.1//EN" "http://www.w3.org/Graphics/SVG/1.1/DTD/svg11.dtd"><svg t="1773321934454" class="icon" viewBox="0 0 1024 1024" version="1.1" xmlns="http://www.w3.org/2000/svg" p-id="15452" xmlns:xlink="http://www.w3.org/1999/xlink" width="200" height="200"><path d="M925.63551031 886.08662688V328.61029975a20.32606968 20.32606968 0 0 0-32.52171126-16.26085502L146.19850661 869.69026446a20.32606968 20.32606968 0 0 0 12.19564156 36.5869247h746.91529246a20.32606968 20.32606968 0 0 0 20.32606968-20.32606968z" fill="#c30019" fill-opacity=".2" p-id="15453"></path><path d="M459.82975603 152.99306116a56.43871852 56.43871852 0 1 1 66.33073917 33.06373964v74.79993453h302.45191091a135.50712882 135.50712882 0 0 1 135.50712882 135.50712884v406.52138525a135.50712882 135.50712882 0 0 1-135.50712882 135.50712881H196.26839074a135.50712882 135.50712882 0 0 1-135.50712881-135.50712881v-406.52138525a135.50712882 135.50712882 0 0 1 135.50712881-135.50712884h301.63886776V186.0568008a56.50647221 56.50647221 0 0 1-38.07750247-33.06373964z m368.78265008 168.84188202H196.26839074a74.52892096 74.52892096 0 0 0-74.52892095 74.52892099v406.52138525a74.52892096 74.52892096 0 0 0 74.52892095 74.52892098h632.34401537a74.52892096 74.52892096 0 0 0 74.52892101-74.52892098v-406.52138525a74.52892096 74.52892096 0 0 0-74.52892101-74.52892099zM41.65475639 650.0332088c-21.13911166 0-37.80648887-26.28838307-37.80648886-58.94560052 0-32.72497115 16.6673772-59.0133542 37.80648886-59.01335541v117.95895593z m940.69048722 0V532.07425287c21.13911166 0 37.80648887 26.28838307 37.80648886 58.94560171 0 32.72497115-17.34491299 59.0133542-37.80648886 59.01335422z m-592.84368769 34.35105749a36.11265003 36.11265003 0 0 1-35.23185314-37.12895428V552.12930777c0-20.93585174 15.98984143-37.1289531 35.23185314-37.12895311 19.91954751 0 35.23185315 16.93839081 35.23185316 37.12895311v95.12600424c0 20.25831598-15.98984143 37.1289531-35.23185316 37.12895428z m244.92913447 0a36.11265003 36.11265003 0 0 1-35.23185317-37.12895428V552.12930777c0-20.93585174 16.05759513-37.1289531 35.23185317-37.12895311 19.91954751 0 35.29960686 16.93839081 35.29960683 37.12895311v95.12600424c0 20.25831598-16.05759513 37.1289531-35.23185314 37.12895428z" fill="#c30019" p-id="15454"></path></svg>