<?xml version="1.0" standalone="no"?><!DOCTYPE svg PUBLIC "-//W3C//DTD SVG 1.1//EN" "http://www.w3.org/Graphics/SVG/1.1/DTD/svg11.dtd"><svg t="1773326257921" class="icon" viewBox="0 0 1024 1024" version="1.1" xmlns="http://www.w3.org/2000/svg" p-id="20276" xmlns:xlink="http://www.w3.org/1999/xlink" width="200" height="200"><path d="M218.49 212.27m81.81 0l117.9 0q81.81 0 81.81 81.81l0 117.9q0 81.81-81.81 81.81l-117.9 0q-81.81 0-81.81-81.81l0-117.9q0-81.81 81.81-81.81Z" fill="#FCBFB9" p-id="20277"></path><path d="M615.48 212.27m81.81 0l117.9 0q81.81 0 81.81 81.81l0 117.9q0 81.81-81.81 81.81l-117.9 0q-81.81 0-81.81-81.81l0-117.9q0-81.81 81.81-81.81Z" fill="#FCBFB9" p-id="20278"></path><path d="M218.49 615.21m81.81 0l117.9 0q81.81 0 81.81 81.81l0 117.9q0 81.81-81.81 81.81l-117.9 0q-81.81 0-81.81-81.81l0-117.9q0-81.81 81.81-81.81Z" fill="#FCBFB9" p-id="20279"></path><path d="M615.48 615.21m81.81 0l117.9 0q81.81 0 81.81 81.81l0 117.9q0 81.81-81.81 81.81l-117.9 0q-81.81 0-81.81-81.81l0-117.9q0-81.81 81.81-81.81Z" fill="#FCBFB9" p-id="20280"></path><path d="M359.2 460.29H241.3A109.44 109.44 0 0 1 132 351V233.08a109.44 109.44 0 0 1 109.3-109.31h117.9a109.44 109.44 0 0 1 109.31 109.31V351A109.44 109.44 0 0 1 359.2 460.29zM241.3 178.77a54.38 54.38 0 0 0-54.3 54.31V351a54.37 54.37 0 0 0 54.31 54.31H359.2A54.37 54.37 0 0 0 413.51 351V233.08a54.37 54.37 0 0 0-54.31-54.31zM756.19 460.29h-117.9A109.44 109.44 0 0 1 529 351V233.08a109.44 109.44 0 0 1 109.29-109.31h117.9A109.44 109.44 0 0 1 865.5 233.08V351a109.44 109.44 0 0 1-109.31 109.29z m-117.9-281.52A54.38 54.38 0 0 0 584 233.08V351a54.37 54.37 0 0 0 54.31 54.31h117.9A54.37 54.37 0 0 0 810.5 351V233.08a54.37 54.37 0 0 0-54.31-54.31zM359.2 863.23H241.3A109.44 109.44 0 0 1 132 753.92V636a109.44 109.44 0 0 1 109.3-109.29h117.9A109.44 109.44 0 0 1 468.51 636v117.9A109.44 109.44 0 0 1 359.2 863.23zM241.3 581.71A54.37 54.37 0 0 0 187 636v117.9a54.38 54.38 0 0 0 54.31 54.31H359.2a54.37 54.37 0 0 0 54.31-54.31V636a54.37 54.37 0 0 0-54.31-54.31zM756.19 863.23h-117.9A109.44 109.44 0 0 1 529 753.92V636a109.44 109.44 0 0 1 109.29-109.29h117.9A109.44 109.44 0 0 1 865.5 636v117.9a109.44 109.44 0 0 1-109.31 109.33z m-117.9-281.52A54.37 54.37 0 0 0 584 636v117.9a54.38 54.38 0 0 0 54.31 54.31h117.9a54.37 54.37 0 0 0 54.31-54.31V636a54.37 54.37 0 0 0-54.31-54.31z" fill="#333333" p-id="20281"></path></svg>