<?xml version="1.0" standalone="no"?><!DOCTYPE svg PUBLIC "-//W3C//DTD SVG 1.1//EN" "http://www.w3.org/Graphics/SVG/1.1/DTD/svg11.dtd"><svg class="icon" width="200px" height="200.00px" viewBox="0 0 1024 1024" version="1.1" xmlns="http://www.w3.org/2000/svg"><path d="M512 512m-512 0a512 512 0 1 0 1024 0 512 512 0 1 0-1024 0Z" fill="#EEF6FC" /><path d="M401.6128 497.92l-187.136-187.136a20.6848 20.6848 0 0 0-29.2352 29.2608l187.136 187.136 29.2352-29.2608z" fill="#9BACB2" /><path d="M490.5984 575.4112a133.0432 133.0432 0 0 1 266.0864 0H490.5984z" fill="#F781BF" /><path d="M623.616 442.368c-4.6592 0-9.2928 0.256-13.8752 0.7168a133.0432 133.0432 0 0 1 119.168 132.3264h27.776a133.0432 133.0432 0 0 0-133.0432-133.0432z" fill="#F464B7" /><path d="M535.9104 575.4112a87.7312 87.7312 0 0 1 175.4368 0h-175.4368z" fill="#FFA4D8" /><path d="M579.7888 575.4112a43.8528 43.8528 0 1 1 87.7056 0h-87.7056z" fill="#F781BF" /><path d="M623.616 531.5584c-4.5568 0-8.96 0.6912-13.1328 1.9968 17.792 5.6064 30.72 22.2208 30.72 41.856h26.2912c0-24.2176-19.6352-43.8528-43.8528-43.8528z" fill="#F464B7" /><path d="M526.976 417.2032a8.7552 8.7552 0 0 1 12.928 0.5376 96.512 96.512 0 0 1-142.8736 129.408l129.9456-129.9456z" fill="#FB4239" /><path d="M560.1792 461.6448a96.512 96.512 0 0 1-148.224 70.5792l-14.9248 14.9248a96.512 96.512 0 0 0 163.1488-85.504z" fill="#E31F1D" /><path d="M499.8912 444.288a48.9728 48.9728 0 0 1-69.248 69.2736l69.248-69.2736z" fill="#FF7373" /><path d="M374.7072 431.104a8.7552 8.7552 0 0 0-9.2672-9.2928c-23.8848 1.4848-85.9648 8.4224-118.528 40.96-49.6128 49.6128-12.3904 99.2256-12.3904 99.2256s49.6128 37.2224 99.2256-12.3904c32.5632-32.5376 39.4752-94.6432 40.96-118.528z" fill="#8BCC3F" /><path d="M352.9472 422.8608c-2.9696 28.6464-12.032 78.1568-39.9104 106.0352-33.8688 33.8688-67.712 27.2896-85.8112 19.6864 3.5328 8.4224 7.296 13.4144 7.296 13.4144s49.6128 37.2224 99.2256-12.3904c32.5376-32.5376 39.4752-94.6432 40.96-118.528a8.7552 8.7552 0 0 0-9.2672-9.2672c-3.456 0.2048-7.68 0.5376-12.4928 1.024z" fill="#659922" /><path d="M367.744 273.2288a8.7552 8.7552 0 0 0-9.344 9.344c1.4336 20.7872 7.5776 69.5296 33.4848 95.4624 40.7552 40.7296 81.4848 10.1888 81.4848 10.1888s30.5664-40.7552-10.1888-81.4848c-25.9072-25.9328-74.6496-32.0512-95.4368-33.536z" fill="#8BCC3F" /><path d="M463.1808 306.7392a76.16 76.16 0 0 0-10.9312-8.9856c24.9344 36.352 0.128 69.4528 0.128 69.4528s-33.1008 24.8064-69.4784-0.128c2.7136 3.9424 5.6832 7.6288 8.9856 10.9568 40.7552 40.7296 81.4848 10.1888 81.4848 10.1888s30.5664-40.7552-10.1888-81.4848z" fill="#659922" /><path d="M674.3552 358.016a8.7552 8.7552 0 0 0-9.344 9.344c1.4592 20.7872 7.5776 69.5296 33.536 95.4624 40.704 40.7552 81.4592 10.1888 81.4592 10.1888s30.5664-40.7552-10.1888-81.4848c-25.9072-25.9328-74.6752-32.0512-95.4624-33.5104z" fill="#8BCC3F" /><path d="M769.8176 391.5264a75.3408 75.3408 0 0 0-10.5984-8.7552c25.344 36.5056 0.3584 69.7856 0.3584 69.7856s-33.3056 24.9856-69.8112-0.3328c2.6368 3.84 5.5552 7.3728 8.7552 10.5984 40.7552 40.7552 81.4848 10.1888 81.4848 10.1888s30.5664-40.7552-10.1888-81.4848z" fill="#659922" /><path d="M429.2096 516.9408a58.4704 58.4704 0 1 1-116.992 0 58.4704 58.4704 0 0 1 116.992 0z" fill="#FE9700" /><path d="M404.5312 469.248a58.4704 58.4704 0 0 1-81.5104 81.5104 58.4704 58.4704 0 1 0 81.5104-81.5104z" fill="#FC7800" /><path d="M392.6528 516.9408a21.9392 21.9392 0 1 1-43.8784 0 21.9392 21.9392 0 0 1 43.8784 0z" fill="#FFD15F" /><path d="M690.8928 575.4112a96.512 96.512 0 0 1 192.9728 0h-192.9728z" fill="#FB4239" /><path d="M787.3792 478.9248c-3.968 0-7.8592 0.256-11.6992 0.7168a96.4864 96.4864 0 0 1 84.7872 95.744h23.3984a96.512 96.512 0 0 0-96.4864-96.4608z" fill="#E31F1D" /><path d="M738.4064 575.4112a48.9728 48.9728 0 0 1 97.9456 0h-97.9456z" fill="#FF7373" /><path d="M636.8 315.1872a58.496 58.496 0 1 1-116.992 0 58.496 58.496 0 0 1 116.992 0z" fill="#FE9700" /><path d="M611.712 267.1616a58.4704 58.4704 0 0 1-81.408 81.408 58.4704 58.4704 0 1 0 81.408-81.408z" fill="#FC7800" /><path d="M600.2432 315.1872a21.9392 21.9392 0 1 1-43.8528 0 21.9392 21.9392 0 0 1 43.8528 0z" fill="#FFD15F" /><path d="M234.496 572.9792a10.9568 10.9568 0 0 1-7.7312-18.7136l44.5952-44.5952a10.9824 10.9824 0 0 1 15.488 15.5136l-44.5696 44.5696a10.9568 10.9568 0 0 1-7.7568 3.2256zM484.7616 424.0896h-0.2304a10.9568 10.9568 0 0 1-10.752-11.1616c0.1536-7.3728-6.2976-15.1552-8.0384-16.8448l-0.1024-0.128-38.3744-38.3488a10.9568 10.9568 0 1 1 15.5136-15.488l38.2976 38.2976c1.8432 1.792 14.9504 15.2832 14.6432 32.9216a10.9568 10.9568 0 0 1-10.9568 10.752zM780.032 483.968a10.9312 10.9312 0 0 1-7.7824-3.2l-38.3488-38.3744a10.9568 10.9568 0 1 1 15.5136-15.488l38.3488 38.3488a10.9568 10.9568 0 0 1-7.7568 18.7136z" fill="#659922" /><path d="M761.088 759.808l-2.8672 7.0912a58.4704 58.4704 0 0 1-54.272 36.7616H373.76a58.4704 58.4704 0 0 1-54.2976-36.7616l-2.816-7.0912h444.416z" fill="#9CC8ED" /><path d="M538.8288 549.2736H193.3824a11.6992 11.6992 0 0 0-11.4688 13.9264l19.8144 101.9648a116.9664 116.9664 0 0 0 114.816 94.6432h444.5952a116.9408 116.9408 0 0 0 114.816-94.6432L895.744 563.2a11.6992 11.6992 0 0 0-11.4688-13.9264H538.8288z" fill="#B7D7F2" /><path d="M807.8592 549.2736l-22.528 115.8912a116.9664 116.9664 0 0 1-114.816 94.6432h90.624a116.9408 116.9408 0 0 0 114.816-94.6432L895.744 563.2a11.6992 11.6992 0 0 0-11.4688-13.9264h-76.4416z" fill="#9CC8ED" /></svg>