<?xml version="1.0" standalone="no"?><!DOCTYPE svg PUBLIC "-//W3C//DTD SVG 1.1//EN" "http://www.w3.org/Graphics/SVG/1.1/DTD/svg11.dtd"><svg t="1773321875276" class="icon" viewBox="0 0 1027 1024" version="1.1" xmlns="http://www.w3.org/2000/svg" p-id="12328" xmlns:xlink="http://www.w3.org/1999/xlink" width="200.5859375" height="200"><path d="M913.408 644.608c-13.824 0-25.088 9.728-28.16 23.04-0.512 2.048-0.512 3.584-0.512 5.632v252.928h-114.176v-199.68c0-62.976-51.2-114.176-114.176-114.176s-114.176 51.2-114.176 114.176v199.68h-399.36v-252.928-0.512c-0.512-15.36-12.8-28.16-28.672-28.16-13.824 0-25.088 9.728-28.16 23.04-0.512 2.048-0.512 3.584-0.512 5.632v281.088c0 1.536 0 3.072 0.512 4.608 2.048 13.824 13.824 24.064 28.16 24.064h799.232c14.336 0 26.112-10.752 28.16-24.576 0-1.536 0.512-2.56 0.512-4.096v-281.088c0-2.048 0-3.584-0.512-5.12-2.56-13.312-13.824-23.552-28.16-23.552zM114.176 98.304h799.232c15.872 0 28.672-12.8 28.672-28.672S929.28 40.96 913.408 40.96H114.176c-15.872 0-28.672 12.8-28.672 28.672s12.8 28.672 28.672 28.672zM1027.584 412.16l-76.288-203.776c-11.264-29.696-45.568-53.248-76.8-53.248H153.6c-31.744 0-66.048 24.064-76.8 53.248L0 412.16H0.512c0 0.512-0.512 1.024-0.512 1.024 0 71.168 57.344 113.152 128.512 113.152 66.048 0 120.832-50.176 127.488-114.176h1.536c7.168 64 61.44 114.176 127.488 114.176 66.048 0 120.832-50.176 127.488-114.176h1.536c7.168 64 61.44 114.176 127.488 114.176 66.048 0 120.832-50.176 127.488-114.176h1.536c7.168 64 61.44 114.176 127.488 114.176 71.168 0 128.512-40.96 128.512-112.128 0 0-0.512-0.512-1.024-2.048h2.048z" fill="#EF4F43" p-id="12329"></path></svg>