<?xml version="1.0" standalone="no"?><!DOCTYPE svg PUBLIC "-//W3C//DTD SVG 1.1//EN" "http://www.w3.org/Graphics/SVG/1.1/DTD/svg11.dtd"><svg class="icon" width="200px" height="200.00px" viewBox="0 0 1024 1024" version="1.1" xmlns="http://www.w3.org/2000/svg"><path d="M407.210667 145.408L150.528 387.242667h722.602667L616.789333 145.408c-60.928-46.933333-148.650667-46.933333-209.578666 0z" fill="#FFF7EC" /><path d="M911.018667 380.074667H112.981333c-4.949333 0-8.533333 4.608-7.338666 9.216l73.216 309.077333c17.749333 75.093333 84.821333 128 161.962666 128h342.186667c77.141333 0 144.213333-53.077333 161.962667-128L918.186667 389.290667c1.365333-4.608-2.218667-9.216-7.168-9.216zM339.797333 834.730667h344.234667v54.272H339.797333z" fill="#D2E8FF" /><path d="M481.962667 270.165333c-5.802667 5.973333-5.802667 15.530667 0.170666 21.333334l26.794667 26.453333c2.901333 2.901333 6.826667 4.437333 10.752 4.437333s7.850667-1.536 10.752-4.608c5.802667-5.973333 5.802667-15.530667-0.170667-21.333333L503.466667 269.994667c-5.973333-5.973333-15.530667-5.802667-21.504 0.170666z" fill="#572C00" /><path d="M928.938667 373.589333c-4.437333-5.461333-10.752-8.704-17.92-8.704h-39.253334L627.2 134.314667l-1.194667-1.024c-66.048-50.688-161.962667-50.517333-228.010666 0l-245.76 231.424h-39.253334c-6.997333 0-13.482667 3.072-17.92 8.704-4.437333 5.461333-5.802667 12.629333-4.266666 19.285333l73.216 309.077333c18.261333 76.970667 82.944 132.096 160.597333 138.922667v63.146667h374.613333v-63.146667c77.482667-6.826667 142.165333-61.952 160.597334-138.922667l73.216-309.077333c1.706667-6.656 0.170667-13.653333-4.096-19.114667z m-511.829334-216.746666c55.296-41.984 134.826667-41.984 189.952 0L827.733333 364.885333H621.397333c3.925333-5.973333 3.413333-13.824-1.706666-18.944l-26.794667-26.282666c-5.973333-5.802667-15.530667-5.802667-21.333333 0.170666s-5.802667 15.530667 0.170666 21.333334l24.234667 23.893333H464.213333c3.072-5.802667 2.389333-12.970667-2.56-17.92l-26.794666-26.453333c-5.973333-5.802667-15.530667-5.802667-21.333334 0.170666-5.802667 5.973333-5.802667 15.530667 0.170667 21.333334l23.04 22.698666h-85.333333c0.853333-0.682667 1.706667-1.024 2.56-1.536 5.802667-5.973333 5.802667-15.530667-0.170667-21.333333l-26.794667-26.453333c-5.973333-5.802667-15.530667-5.802667-21.333333 0.170666s-5.802667 15.530667 0.170667 21.333334l26.794666 26.453333c0.682667 0.682667 1.536 1.024 2.389334 1.536H196.266667l220.842666-208.213333zM669.013333 873.813333H354.986667v-32.085333h314.026666V873.813333z m161.450667-178.688c-16.384 68.608-76.8 116.394667-147.114667 116.394667H340.992c-70.485333 0-131.072-47.786667-147.114667-116.394667L124.245333 402.432h775.509334l-69.290667 292.693333z" fill="#572C00" /><path d="M432.298667 259.925333c2.901333 2.901333 6.826667 4.437333 10.752 4.437334s7.850667-1.536 10.752-4.608c5.802667-5.973333 5.802667-15.530667-0.170667-21.333334l-26.794667-26.453333c-5.973333-5.802667-15.530667-5.802667-21.333333 0.170667-5.802667 5.973333-5.802667 15.530667 0.170667 21.333333l26.624 26.453333zM550.058667 265.898667c2.901333 2.901333 6.826667 4.437333 10.752 4.437333s7.850667-1.536 10.752-4.608c5.802667-5.973333 5.802667-15.530667-0.170667-21.333333l-26.794667-26.453334c-5.973333-5.802667-15.530667-5.802667-21.333333 0.170667-5.802667 5.973333-5.802667 15.530667 0.170667 21.333333l26.624 26.453334zM639.317333 272.725333c2.901333 2.901333 6.826667 4.437333 10.752 4.437334s7.850667-1.536 10.752-4.608c5.802667-5.973333 5.802667-15.530667-0.170666-21.333334l-26.794667-26.453333c-5.973333-5.802667-15.530667-5.802667-21.333333 0.170667-5.802667 5.973333-5.802667 15.530667 0.170666 21.333333l26.624 26.453333zM713.386667 359.594667c2.901333 2.901333 6.826667 4.437333 10.752 4.437333s7.850667-1.536 10.752-4.608c5.802667-5.973333 5.802667-15.530667-0.170667-21.333333l-26.794667-26.453334c-5.973333-5.802667-15.530667-5.802667-21.333333 0.170667-5.802667 5.973333-5.802667 15.530667 0.170667 21.333333l26.624 26.453334zM475.818667 211.114667c2.901333 2.901333 6.826667 4.437333 10.752 4.437333s7.850667-1.536 10.752-4.608c5.802667-5.973333 5.802667-15.530667-0.170667-21.333333l-26.794667-26.453334c-5.973333-5.802667-15.530667-5.802667-21.333333 0.170667-5.802667 5.973333-5.802667 15.530667 0.170667 21.333333l26.624 26.453334z" fill="#572C00" /></svg>