<?xml version="1.0" standalone="no"?><!DOCTYPE svg PUBLIC "-//W3C//DTD SVG 1.1//EN" "http://www.w3.org/Graphics/SVG/1.1/DTD/svg11.dtd"><svg t="1773321956465" class="icon" viewBox="0 0 1024 1024" version="1.1" xmlns="http://www.w3.org/2000/svg" p-id="17340" xmlns:xlink="http://www.w3.org/1999/xlink" width="200" height="200"><path d="M950.857143 0H73.142857a73.142857 73.142857 0 0 0-73.142857 73.142857v877.714286a73.142857 73.142857 0 0 0 73.142857 73.142857h877.714286a73.142857 73.142857 0 0 0 73.142857-73.142857V73.142857a73.142857 73.142857 0 0 0-73.142857-73.142857z m-108.149029 528.574171l-15.652571 14.994286s-14.921143 15.740343-31.4368 15.740343H764.196571v268.170971s1.813943 31.5392-31.422171 31.5392h-125.600914c-33.162971 0-31.392914-31.5392-31.392915-31.5392v-78.862628s0.117029-31.568457-31.422171-31.568457h-78.409143c-30.354286 0-31.4368 31.568457-31.4368 31.568457v78.862628s1.243429 31.5392-31.392914 31.5392H277.504c-32.899657 0-31.4368-31.5392-31.4368-31.5392V559.279543h-31.392914c-17.364114 0-31.422171-15.740343-31.422172-15.740343l-13.5168-15.023543s-10.795886-22.922971 15.6672-49.576228l296.111543-297.457372s15.711086-16.515657 31.422172-16.515657c15.681829 0 31.392914 16.515657 31.392914 16.515657l300.544 297.486629c27.2384 27.399314-2.165029 49.605486-2.165029 49.605485z" fill="#FE8B5E" p-id="17341"></path></svg>