<?xml version="1.0" standalone="no"?><!DOCTYPE svg PUBLIC "-//W3C//DTD SVG 1.1//EN" "http://www.w3.org/Graphics/SVG/1.1/DTD/svg11.dtd"><svg t="1773321912025" class="icon" viewBox="0 0 1024 1024" version="1.1" xmlns="http://www.w3.org/2000/svg" p-id="13492" xmlns:xlink="http://www.w3.org/1999/xlink" width="200" height="200"><path d="M512 0C229.23 0 0 229.23 0 512s229.23 512 512 512 512-229.23 512-512S794.77 0 512 0z m312.1 514.42L719.11 618l-105 103.55a147.46 147.46 0 0 1-208.54-1.43L302 615.11l-103.55-105a147.46 147.46 0 0 1 1.43-208.54A147.46 147.46 0 0 1 408.44 303 147.47 147.47 0 0 0 617 304.45a147.47 147.47 0 0 1 208.54 1.44 147.46 147.46 0 0 1-1.44 208.53z" p-id="13493" fill="#d81e06"></path><path d="M801.72 346.53l-0.29 0.33 0.25 0.06c0.03-0.24 0.04-0.39 0.04-0.39z" p-id="13494" fill="#d81e06"></path><path d="M801.43 346.86a31.44 31.44 0 0 0-4.51-0.75h-0.21A30.06 30.06 0 0 0 766 365.55c-9.83 26.29-35.36 70.14-99.74 94.39a30 30 0 0 0 21.16 56.15c68.59-25.84 104-69 121.72-100.63a203.12 203.12 0 0 0 13.44-29.3 30 30 0 0 0-20.85-39.24" p-id="13495" fill="#d81e06"></path></svg>