<?xml version="1.0" standalone="no"?><!DOCTYPE svg PUBLIC "-//W3C//DTD SVG 1.1//EN" "http://www.w3.org/Graphics/SVG/1.1/DTD/svg11.dtd"><svg class="icon" width="200px" height="200.00px" viewBox="0 0 1024 1024" version="1.1" xmlns="http://www.w3.org/2000/svg"><path d="M871.712512 374.427093l-0.571966-11.439323H152.853434l-0.577987 11.427282c-0.138476 2.709313-11.541675 271.491251 183.61317 424.916651v69.388523h352.210724v-69.388523c195.419755-153.630103 183.751646-422.213358 183.613171-424.90461z"  /><path d="M353.950706 807.014111h316.086547v43.650047h-316.086547z" fill="#EF6354" /><path d="M674.010913 787.446849h-324.033867c-174.943368-134.935842-180.217498-367.075823-179.790028-406.39699h683.625964c0.415428 39.321167-4.858702 271.461148-179.802069 406.39699z" fill="#FFCC66" /><path d="M561.718909 195.853246c-12.01731-6.387959-26.972719-14.329257-26.972719-31.548448a9.031044 9.031044 0 1 1 18.062088 0c0 5.930386 6.568579 9.849859 17.393792 15.593603 12.01731 6.387959 26.972719 14.329257 26.972718 31.542427 0 17.219191-14.955409 25.172531-26.972718 31.560489-10.819191 5.755786-17.393791 9.675259-17.393792 15.611665s6.568579 9.8619 17.393792 15.611665c12.01731 6.393979 26.972719 14.341298 26.972718 31.560489a9.031044 9.031044 0 1 1-18.062088 0c0-5.936406-6.568579-9.8619-17.393791-15.611665-12.01731-6.393979-26.972719-14.341298-26.972719-31.560489s14.955409-25.172531 26.972719-31.56651c10.825212-5.755786 17.393791-9.669238 17.393791-15.611665 0-5.918344-6.568579-9.837817-17.393791-15.581561zM471.035183 227.052493c10.825212-5.755786 17.399812-9.669238 17.399812-15.611665 0-5.924365-6.5746-9.843838-17.393791-15.593603-12.02333-6.387959-26.98476-14.329257-26.98476-31.548448a9.031044 9.031044 0 1 1 18.062088 0c0 5.930386 6.5746 9.849859 17.393792 15.593603 12.02333 6.387959 26.98476 14.329257 26.98476 31.542427 0 17.219191-14.955409 25.172531-26.97874 31.560489-10.825212 5.755786-17.399812 9.675259-17.399812 15.611665s6.5746 9.8619 17.399812 15.611666c12.02333 6.393979 26.978739 14.341298 26.97874 31.560489a9.031044 9.031044 0 1 1-18.062089 0c0-5.936406-6.5746-9.8619-17.399812-15.611665-12.02333-6.393979-26.978739-14.341298-26.978739-31.56049s14.96143-25.160489 26.978739-31.554468z"  /></svg>